<svg width="18" height="18" viewBox="0 0 18 18" fill="none" xmlns="http://www.w3.org/2000/svg">
<path d="M9.01758 18C5.7832 18 2.83008 16.3125 1.21289 13.5C-0.404297 10.7227 -0.404297 7.3125 1.21289 4.5C2.83008 1.72266 5.7832 0 9.01758 0C12.2168 0 15.1699 1.72266 16.7871 4.5C18.4043 7.3125 18.4043 10.7227 16.7871 13.5C15.1699 16.3125 12.2168 18 9.01758 18ZM7.61133 11.8125C7.11914 11.8125 6.76758 12.1992 6.76758 12.6562C6.76758 13.1484 7.11914 13.5 7.61133 13.5H10.4238C10.8809 13.5 11.2676 13.1484 11.2676 12.6562C11.2676 12.1992 10.8809 11.8125 10.4238 11.8125H10.1426V8.71875C10.1426 8.26172 9.75586 7.875 9.29883 7.875H7.61133C7.11914 7.875 6.76758 8.26172 6.76758 8.71875C6.76758 9.21094 7.11914 9.5625 7.61133 9.5625H8.45508V11.8125H7.61133ZM9.01758 4.5C8.38477 4.5 7.89258 5.02734 7.89258 5.625C7.89258 6.25781 8.38477 6.75 9.01758 6.75C9.61523 6.75 10.1426 6.25781 10.1426 5.625C10.1426 5.02734 9.61523 4.5 9.01758 4.5Z" fill="#FCBF4A"/>
</svg>
